# xmcd CD database file
#
# Track frame offsets:
#	150
#	15788
#	29114
#	42850
#	57976
#	80704
#	94360
#	106865
#	126683
#	142306
#	153519
#	166803
#
# Disc length: 2376 seconds
#
# Revision: 0
# Processed by: cddbd v1.4PL0 Copyright (c) Steve Scherf et al.
# Submitted via: CDex 1.50Beta3
#
DISCID=a609460c
DTITLE=Fortin-Léveillé - Valse d'automne
DYEAR=1900
DGENRE=Jazz
TTITLE0=Papillons noirs
TTITLE1=Giant Steps
TTITLE2=Rebolo
TTITLE3=Manoir de mes rêves
TTITLE4=Malse d'automne
TTITLE5=Tourbillon
TTITLE6=Valse #3
TTITLE7=Travessia
TTITLE8=Nao me toque
TTITLE9=Dernier tango à Paris
TTITLE10=Made in France
TTITLE11=Quiero ser tu sombra
EXTD=
EXTT0=
EXTT1=
EXTT2=
EXTT3=
EXTT4=
EXTT5=
EXTT6=
EXTT7=
EXTT8=
EXTT9=
EXTT10=
EXTT11=
PLAYORDER=
